# xmcd
#
# Track frame offsets: 
#        150
#        24788
#        51695
#        68025
#        84590
#        108774
#        119982
#        138249
#        161018
#        184815
#        203445
#        221797
#        247077
#        258681
#        278957
#        296926
#        315236
#        336821
#
# Disc length: 4798 seconds
#
# Revision: 0
# Processed by: cddbd v1.5.2PL0 Copyright (c) Steve Scherf et al.
# Submitted via: ExactAudioCopy v0.99pb5
#
DISCID=1b12bc12
DTITLE=Va  - Hard and Heavy Time Life Box Set - Disc 3
DYEAR=1900
DGENRE=
TTITLE0=Heart - Magic Man
TTITLE1=Boston - Don't Look Back
TTITLE2=Ted Nugent - Cat Scratch Fever
TTITLE3=Blue Oyster Cult - Godzilla
TTITLE4=Kansas - Carry On Wayward Son
TTITLE5=Mountain - Mississippi
TTITLE6=Triumph - Lay It On The Line
TTITLE7=Alda Nova - Fantasy
TTITLE8=Quiet Riot - Bang Your Head (Mental Health)
TTITLE9=Cheap Trick - Surrender
TTITLE10=Survivor - Eye of the Tiger
TTITLE11=Loverboy - Turn Me Loose
TTITLE12=Judas Priest - Breaking the Law
TTITLE13=Alice Cooper - Poison
TTITLE14=Lita Ford - Kiss Me Deadly
TTITLE15=Warrant - Down Boys
TTITLE16=Bad English - Price of Love
TTITLE17=Europe - The Final Countdown
EXTD=
EXTT0=
EXTT1=
EXTT2=
EXTT3=
EXTT4=
EXTT5=
EXTT6=
EXTT7=
EXTT8=
EXTT9=
EXTT10=
EXTT11=
EXTT12=
EXTT13=
EXTT14=
EXTT15=
EXTT16=
EXTT17=
PLAYORDER=
